<svg xmlns="http://www.w3.org/2000/svg" x="0px" y="0px"
width="30" height="30"
viewBox="0 0 171 171"
style=" fill:#000000;"><g fill="none" fill-rule="nonzero" stroke="none" stroke-width="1" stroke-linecap="butt" stroke-linejoin="miter" stroke-miterlimit="10" stroke-dasharray="" stroke-dashoffset="0" font-family="none" font-weight="none" font-size="none" text-anchor="none" style="mix-blend-mode: normal"><path d="M0,171.99626v-171.99626h171.99626v171.99626z" fill="none"></path><g fill="#9b59b6"><path d="M10.2266,6.8066c-1.39168,0.00037 -2.64437,0.8439 -3.16805,2.13329c-0.52368,1.28939 -0.21391,2.76751 0.7834,3.73815l150.48,150.48c0.85779,0.89344 2.13157,1.25335 3.33008,0.94091c1.19851,-0.31244 2.13447,-1.2484 2.44691,-2.44691c0.31244,-1.19851 -0.04746,-2.47229 -0.94091,-3.33008l-11.26195,-11.26195h12.26391v-123.12h-135.38391l-16.09805,-16.09805c-0.64389,-0.66188 -1.52804,-1.0353 -2.45145,-1.03535zM6.84,23.94v123.12h125.53805l-6.33902,-6.33902l-33.49195,-33.49195l-8.04902,8.04902c-1.33722,1.33722 -3.49887,1.33722 -4.83609,0c-1.33722,-1.33722 -1.33722,-3.49887 0,-4.83609l8.04902,-8.04902l-34.39371,-34.39371l-39.63727,36.99211v-74.21133h2.41805l-6.84,-6.84zM35.61609,30.78h121.70391v94.34391l-38.62195,-38.62195c-1.33722,-1.33722 -3.49887,-1.33722 -4.83609,0l-11.26195,11.26195zM119.7,51.3c-5.66644,0 -10.26,4.59356 -10.26,10.26c0,5.66644 4.59356,10.26 10.26,10.26c5.66644,0 10.26,-4.59356 10.26,-10.26c0,-5.66644 -4.59356,-10.26 -10.26,-10.26z"></path></g></g></svg>